<?xml version="1.0" encoding="UTF-8" standalone="no"?>
<!-- Created with Inkscape (http://www.inkscape.org/) -->

<svg
   xmlns:dc="http://purl.org/dc/elements/1.1/"
   xmlns:cc="http://creativecommons.org/ns#"
   xmlns:rdf="http://www.w3.org/1999/02/22-rdf-syntax-ns#"
   xmlns:svg="http://www.w3.org/2000/svg"
   xmlns="http://www.w3.org/2000/svg"
   xmlns:sodipodi="http://sodipodi.sourceforge.net/DTD/sodipodi-0.dtd"
   xmlns:inkscape="http://www.inkscape.org/namespaces/inkscape"
   width="1000mm"
   height="297mm"
   viewBox="0 0 1000 297"
   version="1.1"
   id="svg899"
   inkscape:version="0.92.2 (5c3e80d, 2017-08-06)"
   sodipodi:docname="vanylla-logo-v2-big-white.svg"
   inkscape:export-filename="E:\Bibliotecas\Documentos\FrontProjects\Vanylla.Home\ImageRepovanylla-white-logo.png"
   inkscape:export-xdpi="96"
   inkscape:export-ydpi="96">
  <defs
     id="defs893" />
  <sodipodi:namedview
     id="base"
     pagecolor="#ffffff"
     bordercolor="#666666"
     borderopacity="1.0"
     inkscape:pageopacity="0.0"
     inkscape:pageshadow="2"
     inkscape:zoom="0.12374369"
     inkscape:cx="319.13751"
     inkscape:cy="1757.7782"
     inkscape:document-units="mm"
     inkscape:current-layer="layer1"
     showgrid="false"
     inkscape:window-width="1920"
     inkscape:window-height="1138"
     inkscape:window-x="3192"
     inkscape:window-y="-8"
     inkscape:window-maximized="1" />
  <metadata
     id="metadata896">
    <rdf:RDF>
      <cc:Work
         rdf:about="">
        <dc:format>image/svg+xml</dc:format>
        <dc:type
           rdf:resource="http://purl.org/dc/dcmitype/StillImage" />
        <dc:title></dc:title>
      </cc:Work>
    </rdf:RDF>
  </metadata>
  <g
     inkscape:label="Capa 1"
     inkscape:groupmode="layer"
     id="layer1">
    <text
       xml:space="preserve"
       style="font-style:normal;font-weight:normal;font-size:84.12631226px;line-height:1.25;font-family:sans-serif;letter-spacing:0px;word-spacing:0px;fill:#ffffff;fill-opacity:1;stroke:none;stroke-width:2.10315752;stroke-opacity:0.60392157;"
       x="47.784245"
       y="164.48428"
       id="text841-3"
       transform="scale(0.92708341,1.0786516)"><tspan
         sodipodi:role="line"
         id="tspan839-4"
         x="47.784245"
         y="164.48428"
         style="font-style:normal;font-variant:normal;font-weight:normal;font-stretch:normal;font-size:84.12734985px;font-family:Capella;-inkscape-font-specification:'Capella, Normal';font-variant-ligatures:normal;font-variant-caps:normal;font-variant-numeric:normal;font-feature-settings:normal;text-align:start;writing-mode:lr-tb;text-anchor:start;fill:#ffffff;fill-opacity:1;stroke:none;stroke-width:2.10315752;stroke-opacity:0.60392157;">vAnYllA</tspan></text>
    <path
       inkscape:connector-curvature="0"
       style="opacity:1;fill:none;fill-opacity:1;stroke:#ffffff;stroke-width:6.00000048;stroke-linecap:round;stroke-linejoin:round;stroke-miterlimit:4;stroke-dasharray:none;stroke-opacity:1"
       d="m 808.2999,122.87256 a 60.835775,60.835775 0 0 0 -52.4945,25.4362 60.835775,60.835775 0 0 0 -0.0975,0.148 60.835775,60.835775 0 0 0 13.34495,13.0695 60.835775,60.835775 0 0 0 84.85475,-14.2002 60.835775,60.835775 0 0 0 0.097,-0.147 60.835775,60.835775 0 0 0 -13.3444,-13.0695 60.835775,60.835775 0 0 0 -32.3603,-11.23655 z"
       id="path844-57-7-8-5" />
    <path
       inkscape:connector-curvature="0"
       style="opacity:1;fill:none;fill-opacity:1;stroke:#ffffff;stroke-width:6.00000048;stroke-linecap:round;stroke-linejoin:round;stroke-miterlimit:4;stroke-dasharray:none;stroke-opacity:1"
       d="m 918.5097,86.08616 a 60.835775,60.835775 0 0 0 -52.495,25.4357 60.835775,60.835775 0 0 0 -11.23235,35.60245 60.835775,60.835775 0 0 0 67.3664,-22.75465 60.835775,60.835775 0 0 0 11.2324,-35.60205 60.835775,60.835775 0 0 0 -14.87145,-2.68145 z"
       id="path844-2-5-7-0-9" />
    <path
       inkscape:connector-curvature="0"
       style="opacity:1;fill:none;fill-opacity:1;stroke:#ffffff;stroke-width:6.00000048;stroke-linecap:round;stroke-linejoin:round;stroke-miterlimit:4;stroke-dasharray:none;stroke-opacity:1"
       d="m 876.7944,144.76946 a 60.835775,60.835775 0 0 0 -21.5713,2.91865 60.835775,60.835775 0 0 0 25.43155,49.1267 60.835775,60.835775 0 0 0 53.9316,8.31735 60.835775,60.835775 0 0 0 -25.43155,-49.1262 60.835775,60.835775 0 0 0 -32.3603,-11.2365 z"
       id="path844-5-3-0-4-2" />
    <path
       inkscape:connector-curvature="0"
       style="opacity:1;fill:none;fill-opacity:1;stroke:#ffffff;stroke-width:6.00000048;stroke-linecap:round;stroke-linejoin:round;stroke-miterlimit:4;stroke-dasharray:none;stroke-opacity:1"
       d="m 854.52805,148.60126 a 60.835775,60.835775 0 0 0 -29.76715,22.15835 60.835775,60.835775 0 0 0 0.1245,70.72015 60.835775,60.835775 0 0 0 29.76715,-22.1583 60.835775,60.835775 0 0 0 -0.1245,-70.7202 z"
       id="path844-6-3-0-6-1" />
    <path
       style="fill:none;fill-opacity:1;stroke:#ffffff;stroke-width:6.00000048;stroke-linecap:round;stroke-linejoin:round;stroke-miterlimit:4;stroke-dasharray:none;stroke-opacity:1"
       d="m 914.32835,133.12456 66.325,-79.0802"
       id="path1010-3-4-1"
       inkscape:connector-curvature="0" />
    <path
       style="fill:none;fill-opacity:1;stroke:#ffffff;stroke-width:6.00000048;stroke-linecap:round;stroke-linejoin:round;stroke-miterlimit:4;stroke-dasharray:none;stroke-opacity:1"
       d="M 884.39415,94.103159 980.65335,54.04436"
       id="path1012-1-1-9"
       inkscape:connector-curvature="0" />
    <path
       inkscape:connector-curvature="0"
       style="opacity:1;fill:none;fill-opacity:1;stroke:#ffffff;stroke-width:6.00000048;stroke-linecap:round;stroke-linejoin:round;stroke-miterlimit:4;stroke-dasharray:none;stroke-opacity:1"
       d="m 823.1455,53.71291 a 60.835775,60.835775 0 0 0 14.21155,84.83725 60.835775,60.835775 0 0 0 16.44495,8.2331 60.835775,60.835775 0 0 0 -14.211,-84.83725 60.835775,60.835775 0 0 0 -16.4455,-8.2331 z"
       id="path844-9-2-9-0-3-2" />
  </g>
</svg>
