<?xml version="1.0" encoding="UTF-8" standalone="no"?>
<!-- Created with Inkscape (http://www.inkscape.org/) -->

<svg
   xmlns:dc="http://purl.org/dc/elements/1.1/"
   xmlns:cc="http://creativecommons.org/ns#"
   xmlns:rdf="http://www.w3.org/1999/02/22-rdf-syntax-ns#"
   xmlns:svg="http://www.w3.org/2000/svg"
   xmlns="http://www.w3.org/2000/svg"
   xmlns:sodipodi="http://sodipodi.sourceforge.net/DTD/sodipodi-0.dtd"
   xmlns:inkscape="http://www.inkscape.org/namespaces/inkscape"
   width="202mm"
   height="170mm"
   viewBox="0 0 202 170"
   version="1.1"
   id="svg1086"
   inkscape:version="0.92.3 (2405546, 2018-03-11)"
   sodipodi:docname="VanyllaTech_fat (copy).svg">
  <defs
     id="defs1080" />
  <sodipodi:namedview
     id="base"
     pagecolor="#ffffff"
     bordercolor="#666666"
     borderopacity="1.0"
     inkscape:pageopacity="0.0"
     inkscape:pageshadow="2"
     inkscape:zoom="0.7"
     inkscape:cx="-223.03144"
     inkscape:cy="350.27753"
     inkscape:document-units="mm"
     inkscape:current-layer="layer1"
     showgrid="false"
     inkscape:window-width="1872"
     inkscape:window-height="1016"
     inkscape:window-x="1280"
     inkscape:window-y="27"
     inkscape:window-maximized="1" />
  <metadata
     id="metadata1083">
    <rdf:RDF>
      <cc:Work
         rdf:about="">
        <dc:format>image/svg+xml</dc:format>
        <dc:type
           rdf:resource="http://purl.org/dc/dcmitype/StillImage" />
        <dc:title />
      </cc:Work>
    </rdf:RDF>
  </metadata>
  <g
     inkscape:label="Capa 1"
     inkscape:groupmode="layer"
     id="layer1"
     transform="translate(0,-127)">
    <path
       inkscape:connector-curvature="0"
       style="opacity:1;fill:none;fill-opacity:1;stroke:#feffff;stroke-width:15;stroke-linecap:round;stroke-linejoin:round;stroke-miterlimit:4;stroke-dasharray:none;stroke-opacity:1"
       d="m 52.999313,192.55429 a 48.668618,48.668618 0 0 0 -41.995576,20.34894 48.668618,48.668618 0 0 0 -0.07816,0.11823 48.668618,48.668618 0 0 0 10.675936,10.45559 48.668618,48.668618 0 0 0 67.883805,-11.36013 48.668618,48.668618 0 0 0 0.07768,-0.11783 48.668618,48.668618 0 0 0 -10.67551,-10.45558 48.668618,48.668618 0 0 0 -25.888247,-8.98922 z"
       id="path844-57-7-8" />
    <path
       inkscape:connector-curvature="0"
       style="opacity:1;fill:none;fill-opacity:1;stroke:#feffff;stroke-width:15;stroke-linecap:round;stroke-linejoin:round;stroke-miterlimit:4;stroke-dasharray:none;stroke-opacity:1"
       d="m 141.16717,163.12518 a 48.668618,48.668618 0 0 0 -41.995998,20.34853 48.668618,48.668618 0 0 0 -8.985902,28.48197 48.668618,48.668618 0 0 0 53.89314,-18.20374 48.668618,48.668618 0 0 0 8.9859,-28.48157 48.668618,48.668618 0 0 0 -11.89714,-2.14519 z"
       id="path844-2-5-7-0" />
    <path
       inkscape:connector-curvature="0"
       style="opacity:1;fill:none;fill-opacity:1;stroke:#feffff;stroke-width:15;stroke-linecap:round;stroke-linejoin:round;stroke-miterlimit:4;stroke-dasharray:none;stroke-opacity:1"
       d="m 107.79494,210.07177 a 48.668618,48.668618 0 0 0 -17.257038,2.33495 48.668618,48.668618 0 0 0 20.345218,39.30137 48.668618,48.668618 0 0 0 43.14527,6.65386 48.668618,48.668618 0 0 0 -20.34522,-39.30096 48.668618,48.668618 0 0 0 -25.88823,-8.98922 z"
       id="path844-5-3-0-4" />
    <path
       inkscape:connector-curvature="0"
       style="opacity:1;fill:none;fill-opacity:1;stroke:#feffff;stroke-width:15;stroke-linecap:round;stroke-linejoin:round;stroke-miterlimit:4;stroke-dasharray:none;stroke-opacity:1"
       d="m 89.981854,213.13722 a 48.668618,48.668618 0 0 0 -23.813724,17.72667 48.668618,48.668618 0 0 0 0.09963,56.57619 48.668618,48.668618 0 0 0 23.813725,-17.72668 48.668618,48.668618 0 0 0 -0.09963,-56.57618 z"
       id="path844-6-3-0-6" />
    <path
       style="fill:none;fill-opacity:1;stroke:#feffff;stroke-width:16.32853508;stroke-linecap:round;stroke-linejoin:round;stroke-miterlimit:4;stroke-dasharray:none;stroke-opacity:1"
       d="m 131.68879,206.13206 58.523,-67.96888"
       id="path1010-3-4"
       inkscape:connector-curvature="0" />
    <path
       style="fill:none;fill-opacity:1;stroke:#feffff;stroke-width:16.30892944;stroke-linecap:round;stroke-linejoin:round;stroke-miterlimit:4;stroke-dasharray:none;stroke-opacity:1"
       d="m 106.60026,173.03848 83.61878,-34.88869"
       id="path1012-1-1"
       inkscape:connector-curvature="0" />
    <path
       inkscape:connector-curvature="0"
       style="opacity:1;fill:none;fill-opacity:1;stroke:#feffff;stroke-width:15;stroke-linecap:round;stroke-linejoin:round;stroke-miterlimit:4;stroke-dasharray:none;stroke-opacity:1"
       d="m 64.875801,137.2266 a 48.668618,48.668618 0 0 0 11.369232,67.86976 48.668618,48.668618 0 0 0 13.155989,6.58648 48.668618,48.668618 0 0 0 -11.368804,-67.86976 48.668618,48.668618 0 0 0 -13.156417,-6.58648 z"
       id="path844-9-2-9-0-3" />
  </g>
</svg>
